<svg width="40" height="40" viewBox="0 0 40 40" fill="none" xmlns="http://www.w3.org/2000/svg">
<path d="M32 19.875V23.75C32 26.5503 32 27.9504 31.455 29.02C30.9757 29.9608 30.2108 30.7257 29.27 31.205C28.2004 31.75 26.8003 31.75 24 31.75H15C12.1997 31.75 10.7996 31.75 9.73005 31.205C8.78924 30.7257 8.02433 29.9608 7.54497 29.02C7 27.9504 7 26.5503 7 23.75V17.25C7 14.4497 7 13.0496 7.54497 11.98C8.02433 11.0392 8.78924 10.2743 9.73005 9.79497C10.7996 9.25 12.1997 9.25 15 9.25H20.125M28.25 15.5V8M24.5 11.75H32M24.5 20.5C24.5 23.2614 22.2614 25.5 19.5 25.5C16.7386 25.5 14.5 23.2614 14.5 20.5C14.5 17.7386 16.7386 15.5 19.5 15.5C22.2614 15.5 24.5 17.7386 24.5 20.5Z" stroke="black" stroke-width="2.5" stroke-linecap="round" stroke-linejoin="round"/>
</svg>
