<svg width="40" height="40" viewBox="0 0 40 40" fill="none" xmlns="http://www.w3.org/2000/svg">
<path d="M6 29.9292L17.5707 35.7145C17.7281 35.7932 17.8068 35.8326 17.8894 35.8481C17.9625 35.8618 18.0375 35.8618 18.1106 35.8481C18.1932 35.8326 18.2719 35.7932 18.4293 35.7145L30 29.9292M6 23.9292L17.5707 18.1438C17.7281 18.0651 17.8068 18.0258 17.8894 18.0103C17.9625 17.9966 18.0375 17.9966 18.1106 18.0103C18.1932 18.0258 18.2719 18.0651 18.4293 18.1438L30 23.9292L18.4293 29.7145C18.2719 29.7932 18.1932 29.8326 18.1106 29.8481C18.0375 29.8618 17.9625 29.8618 17.8894 29.8481C17.8068 29.8326 17.7281 29.7932 17.5707 29.7145L6 23.9292Z" stroke="black" stroke-width="2.4" stroke-linecap="round" stroke-linejoin="round"/>
<path d="M29.5 17.2143C30.6935 17.2143 31.8381 16.7402 32.682 15.8963C33.5259 15.0524 34 13.9078 34 12.7143C34 11.4286 33.3571 10.2071 32.0714 9.17857C30.7857 8.15 29.8214 6.60714 29.5 5C29.1786 6.60714 28.2143 8.15 26.9286 9.17857C25.6429 10.2071 25 11.4286 25 12.7143C25 13.9078 25.4741 15.0524 26.318 15.8963C27.1619 16.7402 28.3065 17.2143 29.5 17.2143Z" stroke="black" stroke-width="2" stroke-linecap="round" stroke-linejoin="round"/>
</svg>
