<svg width="40" height="40" viewBox="0 0 40 40" fill="none" xmlns="http://www.w3.org/2000/svg">
<path d="M20.1318 15.6882V20.4164M20.1318 25.1445H20.1437M18.4951 9.64997L8.77289 26.4428C8.23364 27.3743 7.96401 27.84 8.00386 28.2222C8.03862 28.5556 8.21329 28.8586 8.4844 29.0557C8.79523 29.2817 9.33337 29.2817 10.4096 29.2817H29.854C30.9303 29.2817 31.4684 29.2817 31.7793 29.0557C32.0504 28.8586 32.2251 28.5556 32.2598 28.2222C32.2997 27.84 32.03 27.3743 31.4908 26.4428L21.7686 9.64997C21.2313 8.72187 20.9626 8.25782 20.6121 8.10196C20.3064 7.96601 19.9573 7.96601 19.6516 8.10196C19.3011 8.25782 19.0324 8.72187 18.4951 9.64997Z" stroke="black" stroke-width="2.36409" stroke-linecap="round" stroke-linejoin="round"/>
</svg>
