<svg width="40" height="40" viewBox="0 0 40 40" fill="none" xmlns="http://www.w3.org/2000/svg">
<path d="M28.416 20.7188C26.1447 20.7188 24.7769 22.4082 24.7769 24.3609C24.7769 26.3136 26.416 28 28.416 28C30.6925 28 32.0551 26.5 32.0551 24.3609C32.0551 22.5 30.416 20.7188 28.416 20.7188ZM28.416 20.7188L26.416 16.5M11.6391 20.0355C13.6799 20.0355 15.2781 21.7532 15.2781 23.6746C15.2781 25.8754 13.7069 27.3136 11.6391 27.3136C9.57127 27.3136 8 25.5 8 23.6746C8 21.5 9.41602 20.0355 11.6391 20.0355ZM11.6391 20.0355L16.3108 17.1333M26.416 16.5L16.3108 17.1333M26.416 16.5L21.5 23.5H18L16.3108 17.1333M26.416 16.5L27.916 13M26.416 16.5L26 15.5L19 17.5L8 16L14.5 15.5L16.3108 17.1333M27.916 13L30.5 14V16L27.916 13ZM27.916 13L25 11.5" stroke="black" stroke-width="2" stroke-linecap="round" stroke-linejoin="round"/>
<path d="M17 17H25.5L22 23H17V17Z" fill="black"/>
</svg>
