<svg width="40" height="40" viewBox="0 0 40 40" fill="none" xmlns="http://www.w3.org/2000/svg">
<path d="M26.1384 23.6498H24.555L16.445 23.6468H14.8616M31.4166 23.6498C31.9084 23.6498 34.1543 23.6498 34.3483 23.5694C34.607 23.4623 34.8125 23.2568 34.9196 22.9981C35 22.8041 35 22.5582 35 22.0664V19.0713C35 18.8131 35 18.684 34.9708 18.5625C34.945 18.4548 34.9023 18.3518 34.8444 18.2573C34.7792 18.1508 27.1826 18.1826 27 18L23.5 14H12.8383L11.6273 16.7147C11.6188 16.7338 11.64 16.6861 11.5471 16.7979C11.5142 16.8375 11.2978 17.018 11.2529 17.0432C11.1263 17.1145 11.259 17.0822 11.2059 17.0951C9.95745 17.3992 5.2131 18.1604 5.15556 18.2543C5.09768 18.3488 5.05503 18.4517 5.02917 18.5594C5 18.6809 5 18.81 5 19.0682V22.0633C5 22.5552 5 22.8011 5.08035 22.9951C5.18749 23.2538 5.393 23.4593 5.65166 23.5664C5.84565 23.6468 9.09158 23.6468 9.58344 23.6468M31.4166 24.1776C31.4166 25.6351 30.235 26.8167 28.7775 26.8167C27.32 26.8167 26.1384 25.6351 26.1384 24.1776C26.1384 22.7201 27.32 21.5385 28.7775 21.5385C30.235 21.5385 31.4166 22.7201 31.4166 24.1776ZM9.58344 24.1746C9.58344 25.6321 10.765 26.8136 12.2225 26.8136C13.68 26.8136 14.8616 25.6321 14.8616 24.1746C14.8616 22.717 13.68 21.5355 12.2225 21.5355C10.765 21.5355 9.58344 22.717 9.58344 24.1746Z" stroke="black" stroke-width="2.11126" stroke-linecap="round" stroke-linejoin="round"/>
</svg>
