<svg width="40" height="40" viewBox="0 0 40 40" fill="none" xmlns="http://www.w3.org/2000/svg">
<path d="M26.3364 25.1452H24.9455H10.4182M30.9727 25.1452C31.4048 25.1452 36.2572 25.1452 36.4276 25.0746C36.6548 24.9805 36.8353 24.8 36.9294 24.5728C37 24.4024 37 24.1863 37 23.7543V21.1234C37 20.8966 36.2273 14.6014 36.2016 14.4946C36.1789 14.4 36.1415 14.3096 36.0906 14.2266C36.0854 14.2181 36.08 14.2096 36.0743 14.2012C36.0358 14.1441 36.0165 14.1155 35.9491 14.0496C35.9005 14.002 35.8082 13.9334 35.7487 13.9005C35.6661 13.8549 35.5751 13.8266 35.3931 13.7699C34.6063 13.525 32.9265 13.0003 32.75 13.0003L28.5 13C28.1136 13 12.1986 13.0907 11.16 13.0907H5.96727C4.92863 13.0907 4.40931 13.0907 4.0126 13.2928C3.66364 13.4706 3.37993 13.7543 3.20213 14.1033C3 14.5 3 15.0193 3 16.0579V23.2907C3 24.3149 3.83031 25.1452 4.85455 25.1452M10.4182 25.1452C10.4182 26.6816 9.17272 27.927 7.63636 27.927C6.10001 27.927 4.85455 26.6816 4.85455 25.1452M10.4182 25.1452C10.4182 23.6088 9.17272 22.3634 7.63636 22.3634C6.10001 22.3634 4.85455 23.6088 4.85455 25.1452M30.9727 25.6088C30.9727 26.8891 29.9348 27.927 28.6545 27.927C27.3742 27.927 26.3364 26.8891 26.3364 25.6088C26.3364 24.3285 27.3742 23.2907 28.6545 23.2907C29.9348 23.2907 30.9727 24.3285 30.9727 25.6088ZM28.6545 19.1234L28.5 16.0909L32.5 16.0996L34 21.0996H31L28.6545 19.1234Z" stroke="black" stroke-width="2.3" stroke-linecap="round" stroke-linejoin="round"/>
</svg>
