<svg width="40" height="40" viewBox="0 0 40 40" fill="none" xmlns="http://www.w3.org/2000/svg">
<path d="M28 21.2188C25.7286 21.2188 24.3609 22.9082 24.3609 24.8609C24.3609 26.8136 26 28.5 28 28.5C30.2765 28.5 31.6391 27 31.6391 24.8609C31.6391 23 30 21.2188 28 21.2188ZM28 21.2188L26 17M11.2231 20.5355C13.2639 20.5355 14.8621 22.2532 14.8621 24.1746M11.2231 20.5355C9 20.5355 7.58398 22 7.58398 24.1746C7.58398 26 9.15526 27.8136 11.2231 27.8136C13.2909 27.8136 14.8621 26.3754 14.8621 24.1746M11.2231 20.5355L16 17M14.8621 24.1746L19 24M26 17H16M26 17L19 24M26 17L24.5 12.5M16 17L19 24M24.5 12.5H27M24.5 12.5H23M18 14H14.5" stroke="black" stroke-width="2" stroke-linecap="round" stroke-linejoin="round"/>
</svg>
