<svg width="40" height="40" viewBox="0 0 40 40" fill="none" xmlns="http://www.w3.org/2000/svg">
<path d="M8 14.4C8 12.1598 8 11.0397 8.43597 10.184C8.81947 9.43139 9.43139 8.81947 10.184 8.43597C11.0397 8 12.1598 8 14.4 8H25.6C27.8402 8 28.9603 8 29.816 8.43597C30.5686 8.81947 31.1805 9.43139 31.564 10.184C32 11.0397 32 12.1598 32 14.4V22C32 23.8638 32 24.7956 31.6955 25.5307C31.2895 26.5108 30.5108 27.2895 29.5307 27.6955C28.7957 28 27.8638 28 26 28C25.3486 28 25.0228 28 24.7207 28.0713C24.3177 28.1664 23.9425 28.3541 23.6247 28.6193C23.3863 28.8183 23.1909 29.0788 22.8 29.6L20.8533 32.1956C20.5638 32.5815 20.4191 32.7745 20.2416 32.8436C20.0862 32.904 19.9138 32.904 19.7584 32.8436C19.5809 32.7745 19.4362 32.5815 19.1467 32.1956L17.2 29.6C16.8091 29.0788 16.6137 28.8183 16.3753 28.6193C16.0575 28.3541 15.6823 28.1664 15.2793 28.0713C14.9772 28 14.6514 28 14 28C12.1362 28 11.2044 28 10.4693 27.6955C9.48915 27.2895 8.71046 26.5108 8.30448 25.5307C8 24.7956 8 23.8638 8 22V14.4Z" stroke="black" stroke-width="2.66667" stroke-linecap="round" stroke-linejoin="round"/>
</svg>
