<svg width="40" height="40" viewBox="0 0 40 40" fill="none" xmlns="http://www.w3.org/2000/svg">
<path d="M31 17.7778H9M24.8889 8V12.8889M15.1111 8V12.8889M14.8667 32.4444H25.1333C27.1869 32.4444 28.2136 32.4444 28.998 32.0448C29.6879 31.6933 30.2488 31.1323 30.6004 30.4424C31 29.6581 31 28.6313 31 26.5778V16.3111C31 14.2576 31 13.2308 30.6004 12.4465C30.2488 11.7566 29.6879 11.1956 28.998 10.8441C28.2136 10.4444 27.1869 10.4444 25.1333 10.4444H14.8667C12.8131 10.4444 11.7864 10.4444 11.002 10.8441C10.3121 11.1956 9.75118 11.7566 9.39964 12.4465C9 13.2308 9 14.2576 9 16.3111V26.5778C9 28.6313 9 29.6581 9.39964 30.4424C9.75118 31.1323 10.3121 31.6933 11.002 32.0448C11.7864 32.4444 12.8131 32.4444 14.8667 32.4444Z" stroke="black" stroke-width="2.44444" stroke-linecap="round" stroke-linejoin="round"/>
</svg>
