<svg width="40" height="40" viewBox="0 0 40 40" fill="none" xmlns="http://www.w3.org/2000/svg">
<path d="M7.34637 21.1247C7.16761 20.8416 7.07822 20.7001 7.02819 20.4818C6.9906 20.3178 6.9906 20.0592 7.02819 19.8952C7.07822 19.677 7.16761 19.5354 7.34637 19.2524C8.82363 16.9133 13.2208 11 19.9219 11C26.6229 11 31.0201 16.9133 32.4974 19.2524C32.6761 19.5354 32.7655 19.677 32.8156 19.8952C32.8531 20.0592 32.8531 20.3178 32.8156 20.4818C32.7655 20.7001 32.6761 20.8416 32.4974 21.1247C31.0201 23.4638 26.6229 29.377 19.9219 29.377C13.2208 29.377 8.82363 23.4638 7.34637 21.1247Z" stroke="black" stroke-width="2.62529" stroke-linecap="round" stroke-linejoin="round"/>
<path d="M19.9219 24.1264C22.0967 24.1264 23.8598 22.3634 23.8598 20.1885C23.8598 18.0137 22.0967 16.2506 19.9219 16.2506C17.747 16.2506 15.9839 18.0137 15.9839 20.1885C15.9839 22.3634 17.747 24.1264 19.9219 24.1264Z" stroke="black" stroke-width="2.62529" stroke-linecap="round" stroke-linejoin="round"/>
</svg>
