<svg width="40" height="40" viewBox="0 0 40 40" fill="none" xmlns="http://www.w3.org/2000/svg">
<path d="M7 29.9292L18.5707 35.7145C18.7281 35.7932 18.8068 35.8326 18.8894 35.8481C18.9625 35.8618 19.0375 35.8618 19.1106 35.8481C19.1932 35.8326 19.2719 35.7932 19.4293 35.7145L31 29.9292M7 23.9292L18.5707 18.1438C18.7281 18.0651 18.8068 18.0258 18.8894 18.0103C18.9625 17.9966 19.0375 17.9966 19.1106 18.0103C19.1932 18.0258 19.2719 18.0651 19.4293 18.1438L31 23.9292L19.4293 29.7145C19.2719 29.7932 19.1932 29.8326 19.1106 29.8481C19.0375 29.8618 18.9625 29.8618 18.8894 29.8481C18.8068 29.8326 18.7281 29.7932 18.5707 29.7145L7 23.9292Z" stroke="black" stroke-width="2.4" stroke-linecap="round" stroke-linejoin="round"/>
<path d="M23 6.64258L25.3455 7.77211L25.9248 10.3101L24.3017 12.3455H21.6983L20.0752 10.3101L20.6545 7.77211L23 6.64258Z" fill="black"/>
<path d="M28.1426 10.9287L30.7407 12.4287V15.4287L28.1426 16.9287L25.5445 15.4287V12.4287L28.1426 10.9287Z" fill="black"/>
<path d="M29 4.07129L31.8532 6.14424L30.7634 9.49834H27.2366L26.1468 6.14424L29 4.07129Z" fill="black"/>
</svg>
