<svg width="40" height="40" viewBox="0 0 40 40" fill="none" xmlns="http://www.w3.org/2000/svg">
<path d="M22.4 13.6H25.2047C25.4982 13.6 25.645 13.6 25.7831 13.6332C25.9055 13.6626 26.0226 13.711 26.1299 13.7768C26.251 13.851 26.3548 13.9548 26.5624 14.1624L31.4376 19.0376C31.6452 19.2452 31.749 19.349 31.8232 19.4701C31.889 19.5774 31.9374 19.6945 31.9668 19.8169C32 19.955 32 20.1018 32 20.3953V23.8C32 24.3591 32 24.6387 31.9087 24.8592C31.7869 25.1533 31.5533 25.3869 31.2592 25.5087C31.0387 25.6 30.7591 25.6 30.2 25.6M24.2 25.6H22.4M22.4 25.6V13.84C22.4 12.4959 22.4 11.8238 22.1384 11.3104C21.9083 10.8588 21.5412 10.4917 21.0896 10.2616C20.5762 10 19.9041 10 18.56 10H11.84C10.4959 10 9.82381 10 9.31042 10.2616C8.85883 10.4917 8.49168 10.8588 8.26158 11.3104C8 11.8238 8 12.4959 8 13.84V23.2C8 24.5255 9.07452 25.6 10.4 25.6M22.4 25.6H17.6M17.6 25.6C17.6 27.5882 15.9882 29.2 14 29.2C12.0118 29.2 10.4 27.5882 10.4 25.6M17.6 25.6C17.6 23.6118 15.9882 22 14 22C12.0118 22 10.4 23.6118 10.4 25.6M30.2 26.2C30.2 27.8569 28.8569 29.2 27.2 29.2C25.5431 29.2 24.2 27.8569 24.2 26.2C24.2 24.5431 25.5431 23.2 27.2 23.2C28.8569 23.2 30.2 24.5431 30.2 26.2Z" stroke="black" stroke-width="2.4" stroke-linecap="round" stroke-linejoin="round"/>
</svg>
