<svg width="40" height="40" viewBox="0 0 40 40" fill="none" xmlns="http://www.w3.org/2000/svg">
<path d="M30.8887 32.75C30.8887 30.8311 30.8887 29.8716 30.6518 29.0909C30.1186 27.3331 28.743 25.9575 26.9852 25.4243C26.2045 25.1875 25.2451 25.1875 23.3262 25.1875H16.4512C14.5323 25.1875 13.5728 25.1875 12.7921 25.4243C11.0343 25.9575 9.65873 27.3331 9.1255 29.0909C8.88867 29.8716 8.88867 30.8311 8.88867 32.75M26.0762 14.1875C26.0762 17.6048 23.3059 20.375 19.8887 20.375C16.4714 20.375 13.7012 17.6048 13.7012 14.1875C13.7012 10.7702 16.4714 8 19.8887 8C23.3059 8 26.0762 10.7702 26.0762 14.1875Z" stroke="black" stroke-width="2.75" stroke-linecap="round" stroke-linejoin="round"/>
</svg>
