<svg width="40" height="44" viewBox="0 0 40 44" fill="none" xmlns="http://www.w3.org/2000/svg">
<path d="M28.5 1.90039V6.90039M28.5 11.9004V6.90039M28.5 6.90039H33.5M28.5 6.90039H23.5M19.9219 14.4004C13.2208 14.4004 8.82363 20.3136 7.34637 22.6528C7.16761 22.9358 7.07822 23.0773 7.02819 23.2956C6.9906 23.4596 6.9906 23.7182 7.02819 23.8822C7.07822 24.1005 7.16761 24.242 7.34637 24.5251C8.82363 26.8642 13.2208 32.7774 19.9219 32.7774C26.6229 32.7774 31.0201 26.8642 32.4974 24.5251C32.6761 24.242 32.7655 24.1005 32.8156 23.8822C32.8531 23.7182 32.8531 23.4596 32.8156 23.2956C32.7655 23.0773 32.6761 22.9358 32.4974 22.6528C31.0201 20.3136 26.6229 14.4004 19.9219 14.4004ZM23.8598 23.5889C23.8598 25.7638 22.0967 27.5268 19.9219 27.5268C17.747 27.5268 15.9839 25.7638 15.9839 23.5889C15.9839 21.414 17.747 19.651 19.9219 19.651C22.0967 19.651 23.8598 21.414 23.8598 23.5889Z" stroke="black" stroke-width="2.62529" stroke-linecap="round" stroke-linejoin="round"/>
</svg>
