<svg width="40" height="41" viewBox="0 0 40 41" fill="none" xmlns="http://www.w3.org/2000/svg">
<path fill-rule="evenodd" clip-rule="evenodd" d="M19.9989 9.00977C20.6616 9.00977 21.1989 9.54702 21.1989 10.2098V19.1993H30.1884C30.8512 19.1993 31.3884 19.7365 31.3884 20.3993C31.3884 21.062 30.8512 21.5993 30.1884 21.5993H21.1989V30.5888C21.1989 31.2516 20.6616 31.7888 19.9989 31.7888C19.3362 31.7888 18.7989 31.2516 18.7989 30.5888V21.5993H9.80938C9.14663 21.5993 8.60938 21.062 8.60938 20.3993C8.60938 19.7365 9.14663 19.1993 9.80938 19.1993H18.7989V10.2098C18.7989 9.54702 19.3362 9.00977 19.9989 9.00977Z" fill="black"/>
</svg>
