<svg width="40" height="40" viewBox="0 0 40 40" fill="none" xmlns="http://www.w3.org/2000/svg">
<path d="M21.8354 15.6222C21.1485 16.1119 20.3079 16.4 19.4 16.4C17.0804 16.4 15.2 14.5196 15.2 12.2C15.2 9.8804 17.0804 8 19.4 8C20.9036 8 22.2226 8.7901 22.9646 9.97777M12.8 29.7046H15.9323C16.3408 29.7046 16.7467 29.7532 17.1426 29.8504L20.4523 30.6547C21.1704 30.8296 21.9185 30.8466 22.6442 30.7057L26.3036 29.9937C27.2703 29.8054 28.1595 29.3425 28.8564 28.6646L31.4455 26.1461C32.1848 25.428 32.1848 24.2629 31.4455 23.5437C30.7798 22.8961 29.7257 22.8232 28.9726 23.3724L25.9551 25.5738C25.523 25.8897 24.9972 26.0598 24.4564 26.0598H21.5426L23.3973 26.0597C24.4426 26.0597 25.2894 25.236 25.2894 24.2191V23.851C25.2894 23.0066 24.6987 22.2704 23.8569 22.0662L20.9943 21.3701C20.5285 21.2571 20.0514 21.2 19.5718 21.2C18.414 21.2 16.3183 22.1586 16.3183 22.1586L12.8 23.6299M29.6 13.4C29.6 15.7196 27.7196 17.6 25.4 17.6C23.0804 17.6 21.2 15.7196 21.2 13.4C21.2 11.0804 23.0804 9.2 25.4 9.2C27.7196 9.2 29.6 11.0804 29.6 13.4ZM8 23.12L8 30.08C8 30.7521 8 31.0881 8.13079 31.3448C8.24584 31.5706 8.42942 31.7542 8.65521 31.8692C8.91191 32 9.24794 32 9.92 32H10.88C11.5521 32 11.8881 32 12.1448 31.8692C12.3706 31.7542 12.5542 31.5706 12.6692 31.3448C12.8 31.0881 12.8 30.7521 12.8 30.08V23.12C12.8 22.4479 12.8 22.1119 12.6692 21.8552C12.5542 21.6294 12.3706 21.4458 12.1448 21.3308C11.8881 21.2 11.5521 21.2 10.88 21.2L9.92 21.2C9.24794 21.2 8.91191 21.2 8.65521 21.3308C8.42942 21.4458 8.24584 21.6294 8.13079 21.8552C8 22.1119 8 22.4479 8 23.12Z" stroke="black" stroke-width="2.5" stroke-linecap="round" stroke-linejoin="round"/>
</svg>
