<svg width="40" height="40" viewBox="0 0 40 40" fill="none" xmlns="http://www.w3.org/2000/svg">
<path d="M20 15.1574V20.0463M20 24.9352H20.0122M9 15.0858V25.0067C9 25.4255 9 25.6349 9.0617 25.8217C9.11629 25.9869 9.20553 26.1385 9.32344 26.2665C9.45673 26.4111 9.63977 26.5128 10.0059 26.7162L19.0503 31.7409C19.3969 31.9335 19.5702 32.0297 19.7538 32.0675C19.9162 32.1009 20.0838 32.1009 20.2462 32.0675C20.4298 32.0297 20.6031 31.9335 20.9497 31.7409L29.9941 26.7162C30.3602 26.5128 30.5433 26.4111 30.6766 26.2665C30.7945 26.1385 30.8837 25.9869 30.9383 25.8217C31 25.6349 31 25.4255 31 25.0067V15.0858C31 14.667 31 14.4576 30.9383 14.2709C30.8837 14.1057 30.7945 13.954 30.6766 13.8261C30.5433 13.6814 30.3602 13.5797 29.9941 13.3764L20.9497 8.35166C20.6031 8.15909 20.4298 8.06281 20.2462 8.02506C20.0838 7.99165 19.9162 7.99165 19.7538 8.02506C19.5702 8.06281 19.3969 8.15909 19.0503 8.35166L10.0059 13.3764C9.63977 13.5797 9.45673 13.6814 9.32344 13.8261C9.20553 13.954 9.11629 14.1057 9.0617 14.2709C9 14.4576 9 14.667 9 15.0858Z" stroke="black" stroke-width="2.44444" stroke-linecap="round" stroke-linejoin="round"/>
</svg>
