<svg width="40" height="40" viewBox="0 0 40 40" fill="none" xmlns="http://www.w3.org/2000/svg">
<path d="M17.7755 10.883C18.3329 10.8006 18.9078 10.7564 19.5 10.7564C26.5008 10.7564 31.0948 16.9342 32.6381 19.378C32.8249 19.6737 32.9183 19.8216 32.9706 20.0497C33.0098 20.221 33.0098 20.4913 32.9705 20.6626C32.9182 20.8907 32.8241 21.0396 32.636 21.3373C32.2248 21.9881 31.5979 22.9028 30.7673 23.8948M12.2645 13.1084C9.29952 15.1197 7.28662 17.9141 6.36321 19.3759C6.17558 19.6729 6.08177 19.8214 6.02947 20.0495C5.99019 20.2208 5.99017 20.491 6.02943 20.6623C6.08171 20.8904 6.1751 21.0383 6.36188 21.334C7.90523 23.7778 12.4991 29.9556 19.5 29.9556C22.3228 29.9556 24.7544 28.9512 26.7524 27.5922M7.15766 8.01367L31.8423 32.6983M16.5909 17.4469C15.8464 18.1914 15.3859 19.2199 15.3859 20.356C15.3859 22.6282 17.2278 24.4701 19.5 24.4701C20.6361 24.4701 21.6646 24.0096 22.4091 23.2651" stroke="black" stroke-width="2.74274" stroke-linecap="round" stroke-linejoin="round"/>
</svg>
