<svg width="40" height="41" viewBox="0 0 40 41" fill="none" xmlns="http://www.w3.org/2000/svg">
<path d="M22.3327 25.0344H20.3326L17.6674 25.0306H15.6673M28.9999 25.0344C29.6212 25.0344 29.9318 25.0344 30.1769 24.9329C30.5036 24.7976 30.7632 24.538 30.8985 24.2113C31 23.9662 31 23.6556 31 23.0343V19.251C31 18.9248 31 18.7618 30.9632 18.6083C30.9305 18.4723 30.8766 18.3422 30.8035 18.2229C30.7304 18.1035 24.9947 17.5237 23.5392 17.2333C23.4394 17.2134 23.6888 17.2631 23.5255 17.1802C23.4745 17.1542 23.1802 16.9296 23.1417 16.8872C23.0187 16.7515 23.0827 16.8795 23.0571 16.8283L20.4339 11.582H13.1115H8.08021C8.05177 11.582 8.12286 11.582 7.84014 11.7242C7.71514 11.7871 7.32369 12.1718 7.25866 12.2957C7.11158 12.576 7.11503 12.3764 7.11365 12.4562C7.0828 14.2385 7.26112 18.1136 7.19649 18.219C7.12338 18.3383 7.06951 18.4684 7.03684 18.6045C7 18.7579 7 18.921 7 19.2471V23.0304C7 23.6517 7 23.9624 7.1015 24.2074C7.23683 24.5341 7.49642 24.7937 7.82315 24.9291C8.06819 25.0306 8.37884 25.0306 9.00014 25.0306M28.9999 25.7011C28.9999 27.5422 27.5074 29.0347 25.6663 29.0347C23.8252 29.0347 22.3327 27.5422 22.3327 25.7011C22.3327 23.86 23.8252 22.3676 25.6663 22.3676C27.5074 22.3676 28.9999 23.86 28.9999 25.7011ZM9.00014 25.6973C9.00014 27.5383 10.4926 29.0308 12.3337 29.0308C14.1748 29.0308 15.6673 27.5383 15.6673 25.6973C15.6673 23.8562 14.1748 22.3637 12.3337 22.3637C10.4926 22.3637 9.00014 23.8562 9.00014 25.6973Z" stroke="black" stroke-width="2.66685" stroke-linecap="round" stroke-linejoin="round"/>
</svg>
