<svg width="40" height="41" viewBox="0 0 40 41" fill="none" xmlns="http://www.w3.org/2000/svg">
<path d="M24.1384 24.0502H22.555L17.445 24.0471H15.8616M29.4166 24.0502C29.9084 24.0502 30.1543 24.0502 30.3483 23.9698C30.607 23.8627 30.8125 23.6572 30.9196 23.3985C31 23.2045 31 22.9586 31 22.4667V19.4717C31 19.2135 31 19.0844 30.9708 18.9629C30.945 18.8552 30.9023 18.7522 30.8444 18.6577C30.7865 18.5632 26.2458 18.1042 25.0935 17.8743C25.0145 17.8585 25.212 17.8979 25.0827 17.8322C25.0423 17.8117 24.8093 17.6339 24.7789 17.6003C24.6814 17.4929 24.7321 17.5942 24.7118 17.5537L22.6352 13.4004H13.8383L12.6364 17.8397C12.6335 17.8505 12.6408 17.8236 12.5319 17.977C12.4895 18.0369 12.2266 18.2667 12.1617 18.3008C11.9951 18.3882 12.1444 18.3686 12.0847 18.3765C11.1819 18.4951 9.20739 18.5701 9.15556 18.6547C9.09768 18.7491 9.05503 18.8521 9.02917 18.9598C9 19.0813 9 19.2104 9 19.4686V22.4637C9 22.9556 9 23.2015 9.08035 23.3955C9.18749 23.6541 9.393 23.8596 9.65166 23.9668C9.84565 24.0471 10.0916 24.0471 10.5834 24.0471M29.4166 24.578C29.4166 26.0355 28.235 27.2171 26.7775 27.2171C25.32 27.2171 24.1384 26.0355 24.1384 24.578C24.1384 23.1205 25.32 21.9389 26.7775 21.9389C28.235 21.9389 29.4166 23.1205 29.4166 24.578ZM10.5834 24.575C10.5834 26.0325 11.765 27.214 13.2225 27.214C14.68 27.214 15.8616 26.0325 15.8616 24.575C15.8616 23.1174 14.68 21.9359 13.2225 21.9359C11.765 21.9359 10.5834 23.1174 10.5834 24.575Z" stroke="black" stroke-width="2.11126" stroke-linecap="round" stroke-linejoin="round"/>
</svg>
