<svg width="40" height="40" viewBox="0 0 40 40" fill="none" xmlns="http://www.w3.org/2000/svg">
<path d="M6 29.9292L17.5707 35.7145C17.7281 35.7932 17.8068 35.8326 17.8894 35.8481C17.9625 35.8618 18.0375 35.8618 18.1106 35.8481C18.1932 35.8326 18.2719 35.7932 18.4293 35.7145L30 29.9292M6 23.9292L17.5707 18.1438C17.7281 18.0651 17.8068 18.0258 17.8894 18.0103C17.9625 17.9966 18.0375 17.9966 18.1106 18.0103C18.1932 18.0258 18.2719 18.0651 18.4293 18.1438L30 23.9292L18.4293 29.7145C18.2719 29.7932 18.1932 29.8326 18.1106 29.8481C18.0375 29.8618 17.9625 29.8618 17.8894 29.8481C17.8068 29.8326 17.7281 29.7932 17.5707 29.7145L6 23.9292Z" stroke="black" stroke-width="2.4" stroke-linecap="round" stroke-linejoin="round"/>
<path d="M31.9223 8.575L25.2539 12.425M31.9223 8.575L32.5263 6.32106M31.9223 8.575L34.1763 9.17894M25.2539 12.425L23 11.8211M25.2539 12.425L24.65 14.6789M31.9223 12.4249L25.2539 8.57492M31.9223 12.4249L34.1763 11.821M31.9223 12.4249L32.5263 14.6789M25.2539 8.57492L24.6501 6.32112M25.2539 8.57492L23.0001 9.179M28.5881 6.65L28.5881 14.35M28.5881 6.65L26.9381 5M28.5881 6.65L30.2381 5M28.5881 14.35L26.9381 16M28.5881 14.35L30.2381 16" stroke="black" stroke-width="1.8" stroke-linecap="round" stroke-linejoin="round"/>
</svg>
