<svg width="40" height="40" viewBox="0 0 40 40" fill="none" xmlns="http://www.w3.org/2000/svg">
<path d="M28.8416 20.2858C30.722 19.2728 32 17.2856 32 15C32 11.6863 29.3137 9 26 9C22.6863 9 20 11.6863 20 15M20 15C17.4347 15 15.2113 16.4635 14.1191 18.6012C14.0795 18.6004 14.0398 18.6 14 18.6C10.6863 18.6 8 21.2863 8 24.6C8 27.9137 10.6863 30.6 14 30.6C19.0823 30.6 22.0921 30.6 26.6 30.6C29.5823 30.6 32 28.1823 32 25.2C32 22.2177 29.5823 19.8 26.6 19.8C26.5173 19.8 26.435 19.8019 26.3531 19.8055C25.5714 17.0325 23.0231 15 20 15Z" stroke="black" stroke-width="2.4" stroke-linecap="round" stroke-linejoin="round"/>
</svg>
