<svg width="40" height="40" viewBox="0 0 40 40" fill="none" xmlns="http://www.w3.org/2000/svg">
<path d="M8 22.9292L19.5707 28.7145C19.7281 28.7932 19.8068 28.8326 19.8894 28.8481C19.9625 28.8618 20.0375 28.8618 20.1106 28.8481C20.1932 28.8326 20.2719 28.7932 20.4293 28.7145L32 22.9292M8 16.9292L19.5707 11.1438C19.7281 11.0651 19.8068 11.0258 19.8894 11.0103C19.9625 10.9966 20.0375 10.9966 20.1106 11.0103C20.1932 11.0258 20.2719 11.0651 20.4293 11.1438L32 16.9292L20.4293 22.7145C20.2719 22.7932 20.1932 22.8326 20.1106 22.8481C20.0375 22.8618 19.9625 22.8618 19.8894 22.8481C19.8068 22.8326 19.7281 22.7932 19.5707 22.7145L8 16.9292Z" stroke="black" stroke-width="2.4" stroke-linecap="round" stroke-linejoin="round"/>
</svg>
