<svg width="40" height="40" viewBox="0 0 40 40" fill="none" xmlns="http://www.w3.org/2000/svg">
<path d="M24.4387 24.0816H22.4887H16.5M30.9387 24.0816C31.5444 24.0816 31.8473 24.0816 32.0862 23.9822C32.4047 23.8496 32.6578 23.5954 32.7897 23.2753C32.8887 23.0353 32.8887 22.731 32.8887 22.1224V18.4166C32.8887 18.0971 32.8887 17.9374 32.8528 17.7871V17.7871C32.7936 17.5394 32.5417 17.4095 32.2871 17.4095H26.3887L21.0045 12H6.88867V21.4693C6.88867 22.9121 8.56406 24.0816 10 24.0816M16.5 24.0816C16.5 25.6872 15.0741 27.5 13.3887 27.5C11.7033 27.5 10.0113 25.5 10 24.0816M16.5 24.0816C16.5 22.3265 15.1113 21 13.5 21C11.8887 21 9.98737 22.5 10 24.0816M30.9387 24.7347C30.9387 26.5381 29.4836 28 27.6887 28C25.8937 28 24.4387 26.5381 24.4387 24.7347C24.4387 22.9313 25.8937 21.4693 27.6887 21.4693C29.4836 21.4693 30.9387 22.9313 30.9387 24.7347Z" stroke="black" stroke-width="2.4" stroke-linecap="round" stroke-linejoin="round"/>
</svg>
