<svg width="40" height="40" viewBox="0 0 40 40" fill="none" xmlns="http://www.w3.org/2000/svg">
<path d="M25.25 30.3613C23.6483 30.7624 21.6574 31 19.5 31C17.3426 31 15.3517 30.7624 13.75 30.3613M27.1667 25.1613C25.2936 25.8687 22.5531 26.3148 19.5 26.3148C16.4469 26.3148 13.7064 25.8687 11.8333 25.1613M9.91667 19.0756C11.7457 20.2153 15.3512 20.9907 19.5 20.9907C23.6488 20.9907 27.2543 20.2153 29.0833 19.0756M31 11.8333C31 13.9504 25.8513 15.6667 19.5 15.6667C13.1487 15.6667 8 13.9504 8 11.8333C8 9.71624 13.1487 8 19.5 8C25.8513 8 31 9.71624 31 11.8333Z" stroke="black" stroke-width="2.55556" stroke-linecap="round" stroke-linejoin="round"/>
</svg>
