<svg width="40" height="40" viewBox="0 0 40 40" fill="none" xmlns="http://www.w3.org/2000/svg">
<path d="M29.5818 14.2364H31.7491C31.9759 14.2364 32.0893 14.2364 32.196 14.262C32.2906 14.2847 32.3811 14.3222 32.464 14.373C32.5576 14.4304 36.4051 15.9596 36.5655 16.12C36.7258 16.2804 36.806 16.3606 36.8634 16.4541C36.9142 16.5371 36.9517 16.6276 36.9744 16.7222C37 16.8289 37 20.8059 37 21.0327V23.6636C37 24.0957 37 24.3117 36.9294 24.4821C36.8353 24.7093 36.6548 24.8898 36.4276 24.984C36.2572 25.0545 36.0411 25.0545 35.6091 25.0545M30.9727 25.0545H29.5818M29.5818 25.0545H10.4182M29.5818 25.0545V19.7382V14.4218C29.5818 13.3832 29.5818 14.4093 29.3797 14.0126C29.2019 13.6636 28.9182 13.3799 28.5692 13.2021C28.1725 13 12.1986 13 11.16 13H5.96727C4.92863 13 4.40931 13 4.0126 13.2021C3.66364 13.3799 3.37993 13.6636 3.20213 14.0126C3 14.4093 3 14.9286 3 15.9673V23.2C3 24.2242 3.83031 25.0545 4.85455 25.0545M10.4182 25.0545C10.4182 26.5909 9.17272 27.8364 7.63636 27.8364C6.10001 27.8364 4.85455 26.5909 4.85455 25.0545M10.4182 25.0545C10.4182 23.5182 9.17272 22.2727 7.63636 22.2727C6.10001 22.2727 4.85455 23.5182 4.85455 25.0545M35.6091 25.5182C35.6091 26.7985 34.5712 27.8364 33.2909 27.8364C32.0106 27.8364 30.9727 26.7985 30.9727 25.5182C30.9727 24.2379 32.0106 23.2 33.2909 23.2C34.5712 23.2 35.6091 24.2379 35.6091 25.5182Z" stroke="black" stroke-width="2.3" stroke-linecap="round" stroke-linejoin="round"/>
</svg>
